<?xml version="1.0" standalone="no"?><svg xmlns="http://www.w3.org/2000/svg" viewBox="0 0 1440 320"><path fill="#fe6431" fill-opacity="1" d="M0,128L13.3,144C26.7,160,53,192,80,197.3C106.7,203,133,181,160,160C186.7,139,213,117,240,106.7C266.7,96,293,96,320,128C346.7,160,373,224,400,256C426.7,288,453,288,480,266.7C506.7,245,533,203,560,197.3C586.7,192,613,224,640,208C666.7,192,693,128,720,112C746.7,96,773,128,800,154.7C826.7,181,853,203,880,181.3C906.7,160,933,96,960,96C986.7,96,1013,160,1040,160C1066.7,160,1093,96,1120,85.3C1146.7,75,1173,117,1200,133.3C1226.7,149,1253,139,1280,154.7C1306.7,171,1333,213,1360,218.7C1386.7,224,1413,192,1427,176L1440,160L1440,0L1426.7,0C1413.3,0,1387,0,1360,0C1333.3,0,1307,0,1280,0C1253.3,0,1227,0,1200,0C1173.3,0,1147,0,1120,0C1093.3,0,1067,0,1040,0C1013.3,0,987,0,960,0C933.3,0,907,0,880,0C853.3,0,827,0,800,0C773.3,0,747,0,720,0C693.3,0,667,0,640,0C613.3,0,587,0,560,0C533.3,0,507,0,480,0C453.3,0,427,0,400,0C373.3,0,347,0,320,0C293.3,0,267,0,240,0C213.3,0,187,0,160,0C133.3,0,107,0,80,0C53.3,0,27,0,13,0L0,0Z"></path></svg>