<svg width="100%" height="100%" id="svg" viewBox="0 0 1440 690" xmlns="http://www.w3.org/2000/svg" class="transition duration-300 ease-in-out delay-150"><path d="M 0,700 C 0,700 0,233 0,233 C 37.9740837221547,234.25563616701805 75.9481674443094,235.51127233403614 107,220 C 138.0518325556906,204.48872766596386 162.181413944917,172.21054683087354 196,188 C 229.818586055083,203.78945316912646 273.32617677602263,267.64654034246985 306,278 C 338.67382322397737,288.35345965753015 360.51387895099236,245.20329179924704 396,212 C 431.48612104900764,178.79670820075296 480.6183074200079,155.54029246054202 520,148 C 559.3816925799921,140.45970753945798 589.0128913689759,148.63553835858488 616,183 C 642.9871086310241,217.36446164141512 667.330127104088,277.9175541051185 703,309 C 738.669872895912,340.0824458948815 785.6666002146723,341.69424522094107 828,318 C 870.3333997853277,294.30575477905893 908.0034720372233,245.30546501111718 934,241 C 959.9965279627767,236.69453498888282 974.3195116364345,277.08389473459016 1009,272 C 1043.6804883635655,266.91610526540984 1098.7184814170382,216.35895605052224 1134,190 C 1169.2815185829618,163.64104394947776 1184.8065626954128,161.48028106332094 1217,184 C 1249.1934373045872,206.51971893667906 1298.0552678013107,253.71991969619398 1338,266 C 1377.9447321986893,278.280080303806 1408.9723660993445,255.640040151903 1440,233 C 1440,233 1440,700 1440,700 Z" stroke="none" stroke-width="0" fill="#00d084" fill-opacity="0.53" class="transition-all duration-300 ease-in-out delay-150 path-0"></path><path d="M 0,700 C 0,700 0,466 0,466 C 41.865589917247505,487.6278847512567 83.73117983449501,509.2557695025135 113,497 C 142.268820165505,484.7442304974865 158.94087057926745,438.6048067412028 196,411 C 233.05912942073255,383.3951932587972 290.50533784843526,374.32500353267534 324,407 C 357.49466215156474,439.67499646732466 367.03777802699165,514.0951791280961 393,537 C 418.96222197300835,559.9048208719039 461.34355004359804,531.2942799549398 501,524 C 540.656449956402,516.7057200450602 577.5880217986161,530.7277010521443 612,517 C 646.4119782013839,503.27229894785563 678.3043627619376,461.7949158364824 712,452 C 745.6956372380624,442.2050841635176 781.1945271536339,464.0926356019263 813,459 C 844.8054728463661,453.9073643980737 872.9175286235267,421.83454175581244 906,446 C 939.0824713764733,470.16545824418756 977.1353583522593,550.5691973748237 1011,531 C 1044.8646416477407,511.4308026251763 1074.5410379674356,391.8886687448927 1113,388 C 1151.4589620325644,384.1113312551073 1198.7004897779982,495.87612764560583 1236,533 C 1273.2995102220018,570.1238723543942 1300.657002920572,532.6068206726841 1333,509 C 1365.342997079428,485.393179327316 1402.6714985397139,475.69658966365796 1440,466 C 1440,466 1440,700 1440,700 Z" stroke="none" stroke-width="0" fill="#00d084" fill-opacity="1" class="transition-all duration-300 ease-in-out delay-150 path-1"></path></svg>