<svg width="100%" height="100%" id="svg" viewBox="0 0 1440 590" xmlns="http://www.w3.org/2000/svg" class="transition duration-300 ease-in-out delay-150"><defs><linearGradient id="gradient" x1="3%" y1="68%" x2="97%" y2="32%"><stop offset="5%" stop-color="#7bdcb5"></stop><stop offset="95%" stop-color="#00d084"></stop></linearGradient></defs><path d="M 0,600 C 0,600 0,300 0,300 C 53.36671575846832,341.3297128129602 106.73343151693663,382.65942562592045 162,392 C 217.26656848306337,401.34057437407955 274.43298969072174,378.6920103092784 337,373 C 399.56701030927826,367.3079896907216 467.5346097201766,378.5725331369661 530,387 C 592.4653902798234,395.4274668630339 649.4285714285714,401.01785714285717 707,378 C 764.5714285714286,354.98214285714283 822.7511045655375,303.3560382916053 886,305 C 949.2488954344625,306.6439617083947 1017.5670103092784,361.5579896907217 1077,349 C 1136.4329896907216,336.4420103092783 1186.9808541973491,256.4120029455081 1246,237 C 1305.0191458026509,217.58799705449192 1372.5095729013256,258.79399852724595 1440,300 C 1440,300 1440,600 1440,600 Z" stroke="none" stroke-width="0" fill="url(#gradient)" fill-opacity="1" class="transition-all duration-300 ease-in-out delay-150 path-0" transform="rotate(-180 720 300)"></path></svg>