<svg viewBox="0 0 1731.33 1072.54" xmlns="http://www.w3.org/2000/svg"><defs><style>.cls-1{fill:#edf3ff;}.cls-2{fill:#c6ddff;}.cls-3{fill:#8dbffc;}.cls-4{fill:#e72822;}.cls-5{fill:#fff;}.cls-6{fill:#2d56b3;}.cls-7{fill:#9fbdff;}.cls-8{fill:#82a9ff;}.cls-9{fill:#c23510;}.cls-10{fill:#de592d;}.cls-11{fill:#263238;}.cls-12{fill:#457afa;}.cls-13{fill:#ecc697;}.cls-14,.cls-15{opacity:0.3;}.cls-15,.cls-27{isolation:isolate;}.cls-16{fill:#fafafa;}.cls-17{fill:#233df9;}.cls-18{fill:#bbd7fd;}.cls-19{fill:#291515;}.cls-20{fill:#523332;}.cls-21{fill:#355c8a;}.cls-22{fill:#dc9b5d;}.cls-23,.cls-24,.cls-26,.cls-27{fill:none;}.cls-23,.cls-24{stroke:#fff;}.cls-23,.cls-24,.cls-27{stroke-miterlimit:10;}.cls-23{stroke-width:0.55px;}.cls-24,.cls-26,.cls-27{stroke-width:1.71px;}.cls-25{fill:#69a5ff;}.cls-26,.cls-27{stroke:#016efc;}.cls-26{stroke-linecap:round;stroke-linejoin:round;}.cls-27{opacity:0.25;}.cls-28{fill:#fcbc29;}.cls-29{fill:#ff5925;}</style></defs><g id="图层_2"><g id="图层_1-2"><g id="图层_2-2"><g id="图层_1-2-2"><path d="M170.05,971C86.4,830.71,1,684.84,0,530-.6,422.37,48.82,306.94,164.74,248.68c49.72-25,117.75-36.61,166.44-10.92,37,19.58,56.13,56.92,97.07,70.83,50.15,17.14,106.89-9,146.06-38.86C632,225.86,675.53,172.11,730.38,126.11a545.13,545.13,0,0,1,255-119.27c98.29-16.78,207.07-3,286.75,44.84S1397.79,183.15,1375.83,260c-11.48,40.45-38.56,86.93-5.68,119.51,35.45,35,105.19,20.44,162,23.31,114.09,6.1,196.21,99.14,198.71,188.46s-54.91,173-119.58,246.6S1476.07,972.93,1364.84,994" class="cls-1"></path><path d="M1621.28,911.67s378,35.14-267,87.55c0,0-53.94,3.6,20.19,19,72.3,14.94,72.3,43.92-37.15,48.13-201.34,7.75-963.14,16-1063.32-28.55,0,0-64.31-21.78,63.33-29.41,85.42-5.06,4.09-8.66-1.22-9.09-97.62-8.11-265.4-31-185.29-89.13Z" class="cls-2"></path><path d="M992.3,981.41c313.48,0,567.42-8.18,567.42-18.31s-254.18-18.3-567.42-18.3S424.89,953,424.89,963.1,678.76,981.41,992.3,981.41Z" class="cls-3"></path><path d="M1368.5,527.55a23.29,23.29,0,0,0-14-3.29v-3.48h-76.69s-2.26,42.1,36.61,43.44c17.2.55,27.27-5.67,32.76-14a56.27,56.27,0,0,0,8.79.85,21.26,21.26,0,0,0,12.2-3,11.8,11.8,0,0,0,.3-20.5ZM1363.32,543a21.29,21.29,0,0,1-13,1,39.68,39.68,0,0,0,3.54-13.73,18.29,18.29,0,0,1,9.76,1.89,5.43,5.43,0,0,1,2.26,5.13A6.53,6.53,0,0,1,1363.32,543Z" class="cls-4"></path><path d="M1331.77,516.45a2.17,2.17,0,0,0,.68-1.59,4.84,4.84,0,0,0-3.24-3.78,14,14,0,0,0-4.27-1.1,12,12,0,0,1-4.82-1.89,6.1,6.1,0,0,1-2.62-4.88,9.6,9.6,0,0,1,2-5.67c2.62-3.48,7.44-5.68,10.74-9.15a13.52,13.52,0,0,0,2.87-13.49,12.84,12.84,0,0,0-4.52-6.52,35.16,35.16,0,0,0-8.11-4.28,34.39,34.39,0,0,1-8.79-5.12,12.06,12.06,0,0,1-2.26-4.33,6.63,6.63,0,0,1,.61-4.88,7.81,7.81,0,0,1,2.32-1.89l1,1.09a13.08,13.08,0,0,0-7.51,14,12.24,12.24,0,0,0,4.21,6.77,29,29,0,0,1,6.53,5.61,6.1,6.1,0,0,1,1,4.09,8.23,8.23,0,0,1-1.28,3.78,14.89,14.89,0,0,1-6.1,5.13c-4.58,2.44-9.46,3.78-13,6.1a11.64,11.64,0,0,0-6.1,8.36,10.41,10.41,0,0,0,1.65,7.32,15.18,15.18,0,0,0,4.82,4.88m-.31,0a11.39,11.39,0,0,1-1.28-.8,12.82,12.82,0,0,1-3.91-3.78,11.53,11.53,0,0,1-2-7.56,9.66,9.66,0,0,1,1.65-4.88,18.16,18.16,0,0,1,4.21-4.27c3.9-2.45,8.79-3.79,13-6.11a17.12,17.12,0,0,0,5.49-4.88,5.25,5.25,0,0,0,0-6.46,22.52,22.52,0,0,0-6.47-5.43,12.22,12.22,0,0,1-4.88-7.57,14,14,0,0,1,8.72-16l1,1.1a3.55,3.55,0,0,0-1.65,1.34,6.71,6.71,0,0,0,1.34,7.56,26.56,26.56,0,0,0,8.12,4.88,28.84,28.84,0,0,1,8.42,4.58,16.23,16.23,0,0,1,4.88,7,14.79,14.79,0,0,1-3.23,14.58c-3.6,3.78-8.42,6.1-10.74,9.15s-2.57,7.32.36,9.21,6.47,1.89,8.73,3.23a5.49,5.49,0,0,1,3.29,4.34,2,2,0,0,1-.67,1.34c.55.79.55.79.18.79Z" class="cls-2"></path><path d="M854.17,275.34H480.29A9.45,9.45,0,0,1,469.83,267c0-.1,0-.19,0-.28v-74.8A9.51,9.51,0,0,1,479.86,183l.43,0H854.17a9.52,9.52,0,0,1,10.37,8.59v74.81A10,10,0,0,1,854.17,275.34Z" class="cls-2"></path><path d="M553.08,244.59a17.8,17.8,0,0,0-4-28.12,27.5,27.5,0,0,0-33.55,3.17,17.74,17.74,0,0,0,3.72,28.06A27.4,27.4,0,0,0,553.08,244.59Z" class="cls-5"></path><path d="M547.53,225.74a106.7,106.7,0,0,1-13,11.59l-3.23,2.44-.67.55-.61-.55a85,85,0,0,1-9.77-8.91,63.5,63.5,0,0,1,10.56,7.81h-1.34l3.29-2.74A98.92,98.92,0,0,1,547.53,225.74Z" class="cls-3"></path><path d="M713.85,223.24c61.86,0,112.07-.37,112.07-.79s-50.21-.8-112.07-.8-112.08.37-112.08.8S652,223.24,713.85,223.24Z" class="cls-5"></path><path d="M669.37,241.6c35.69,0,64.67-.36,64.67-.79s-29-.79-64.67-.79-64.67.36-64.67.79S633.68,241.6,669.37,241.6Z" class="cls-5"></path><path d="M854.17,380.4H480.29A9.51,9.51,0,0,1,469.82,372a1.49,1.49,0,0,1,0-.21v-74.5a9.52,9.52,0,0,1,10.29-8.67H854.17a9.52,9.52,0,0,1,10.37,8.59v74.57A9.82,9.82,0,0,1,854.17,380.4Z" class="cls-2"></path><path d="M552.9,349.65a17.81,17.81,0,0,0,0-25.19,17.2,17.2,0,0,0-3.75-2.87,27.51,27.51,0,0,0-33.8,3.11,17.74,17.74,0,0,0,3.73,28.06A27.45,27.45,0,0,0,552.9,349.65Z" class="cls-5"></path><path d="M547.53,330.43a95.39,95.39,0,0,1-13,11.59c-1,.86-2.26,1.65-3.23,2.44l-.67.55-.61-.55a80,80,0,0,1-9.77-8.9,67,67,0,0,1,10.56,8.11h-1.34l3.29-2.68C541.06,335,547.22,330.19,547.53,330.43Z" class="cls-3"></path><path d="M713.85,328.54c61.86,0,112.07-.37,112.07-.79s-50.21-.8-112.07-.8-112.08.37-112.08.8S652,328.54,713.85,328.54Z" class="cls-5"></path><path d="M669.37,346.66c35.69,0,64.67-.37,64.67-.85s-29-.8-64.67-.8-64.67.37-64.67.8S633.68,346.66,669.37,346.66Z" class="cls-5"></path><path d="M854.17,485.7H480.29a9.51,9.51,0,0,1-10.47-8.45,1.49,1.49,0,0,1,0-.21V402.67A9.51,9.51,0,0,1,480.09,394H854.17a9.52,9.52,0,0,1,10.37,8.59V477A9.82,9.82,0,0,1,854.17,485.7Z" class="cls-2"></path><path d="M553,455a17.74,17.74,0,0,0-.19-25.1,17.42,17.42,0,0,0-3.66-2.78,27.41,27.41,0,0,0-33.8,3.05A17.83,17.83,0,0,0,519,458.25,27.53,27.53,0,0,0,553,455Z" class="cls-5"></path><path d="M547.53,435.74a107.54,107.54,0,0,1-13,11.59c-1,.85-2.26,1.64-3.23,2.44l-.67.55-.61-.55a85.91,85.91,0,0,1-9.77-8.91A67.61,67.61,0,0,1,530.81,449h-1.34l3.29-2.68A133.4,133.4,0,0,1,547.53,435.74Z" class="cls-3"></path><path d="M713.85,433.84c61.86,0,112.07-.36,112.07-.79s-50.21-.85-112.07-.85-112.08.36-112.08.85S652,433.84,713.85,433.84Z" class="cls-5"></path><path d="M669.37,451.9c35.69,0,64.67,0,64.67-.79s-29-.79-64.67-.79-64.67.36-64.67.79S633.68,451.9,669.37,451.9Z" class="cls-5"></path><path d="M1088.15,741.88l-6.1,223.3h-11.71l.61-222.75Z" class="cls-6"></path><path d="M1131.05,739.44l57.47,225.74h13.42l-48.08-225.74Z" class="cls-6"></path><path d="M1023.18,741.88l-63.7,223.3h-13.3L1004,741.09Z" class="cls-6"></path><path d="M1205.72,496.74s73.22-3.47,65.65,66.69S1260,704.6,1232.69,729,932.51,754,909.33,734.07s43.87-19.15,56.19-19.15,89.69,6.1,114.7-48.81S1099.5,493.27,1205.72,496.74Z" class="cls-7"></path><path d="M1210.6,496.74s55.89,9.46,50.71,58-19.83,133.42-46.8,155-133.19,26.42-190.72,23.49a633.6,633.6,0,0,1-108.61-14.09S903,725.71,906.7,730s36.06,21.11,194,18.31,146.86-22.15,153.32-43.2,20.14-133.61,18.31-158.62C1269.73,521.58,1254.78,501.08,1210.6,496.74Z" class="cls-8"></path><path d="M964.67,951.76l-.61-24.41L1018.6,926l1.28,35.63h-3.23c-14.95,1-76.63,4.27-87.07,2.13S964.67,951.76,964.67,951.76Z" class="cls-9"></path><path d="M1000.6,961.94a14.48,14.48,0,0,1,6.83-9.76,21.33,21.33,0,0,1,12.63-3.48l.37,12.69Z" class="cls-10"></path><path d="M942.27,957.06s-16.22,4.33-14,6.47,64.68.85,92-1.89v-1l-72.79,2.14S945.69,957.06,942.27,957.06Z" class="cls-10"></path><path d="M1020.86,960.6h-1a11,11,0,0,0-2.56,0,70.63,70.63,0,0,0-10.07.55c-8.48.55-20.13.79-32.82,1.34s-24.41,0-32.83,0h0c8.48,0,20.14,0,32.83-.49s24.4-.85,32.82-1.09c3.91-.31,7.14-.31,10.07-.55h2.56A3.27,3.27,0,0,1,1020.86,960.6Z" class="cls-11"></path><path d="M947.16,963.53c-.37,0-.37-1.89-2-3.78a14,14,0,0,0-3.6-2.93c0-.31,2.26.49,3.91,2.68S947.46,963.53,947.16,963.53Z" class="cls-11"></path><path d="M963.2,956.33a8,8,0,0,0-1.16-1.89c-.79-1-1.58-1.77-1.71-1.65s.37.92,1.16,2S963.08,956.45,963.2,956.33Z" class="cls-11"></path><path d="M967.53,954.2a7,7,0,0,0-1.52-1.41,9.62,9.62,0,0,0-2-1,6.48,6.48,0,0,0,1.53,1.46C966.5,953.89,967.41,954.32,967.53,954.2Z" class="cls-11"></path><path d="M967.29,950.29a9,9,0,0,0,2.87-.37,7.23,7.23,0,0,0-2.93,0,7.86,7.86,0,0,0-2.93.37A11.51,11.51,0,0,0,967.29,950.29Z" class="cls-11"></path><path d="M971.19,947.06a6.52,6.52,0,0,1-3.23.85,7.05,7.05,0,0,1-3.29-.3H968C969.61,947.61,971.19,946.81,971.19,947.06Z" class="cls-11"></path><path d="M961.13,952.49a14.46,14.46,0,0,1-3.6,0,34.37,34.37,0,0,1-3.91-.55,11.77,11.77,0,0,1-2.25-.79l-1-.86c0-.49,0-.79.67-1a7.44,7.44,0,0,1,8.11,1.35,13.69,13.69,0,0,1,1.29,1.89v.79a6.68,6.68,0,0,0-4.52-4,7.39,7.39,0,0,0-4.27,0c-.61.31,0,.8.37,1.1a5.52,5.52,0,0,0,2,.55l3.54.79A16.9,16.9,0,0,0,961.13,952.49Z" class="cls-11"></path><path d="M960.46,952.73a2,2,0,0,1,0-1.89,3.61,3.61,0,0,1,1-2.14,3.92,3.92,0,0,1,2.93-1.64c1,0,1.28.85,1,1.34a2.26,2.26,0,0,1-.67,1.4,12.92,12.92,0,0,1-1.65,1.89c-1.28.49-1.95,1-2.26,1s1-.55,2-1.58a11.93,11.93,0,0,0,1.28-1.9c.37-.55.68-1.64,0-1.89s-1.58.8-2.25,1.34a2.64,2.64,0,0,0-1,1.9A3.9,3.9,0,0,0,960.46,952.73Z" class="cls-11"></path><path d="M1019.58,948.16h-3.91a17.59,17.59,0,0,0-9,3.6,14.41,14.41,0,0,0-5.24,6.46c-.61,1.89-.61,3.24-1,3.24v-.8a13,13,0,0,1,.67-2.44,13.88,13.88,0,0,1,5.19-7,18.23,18.23,0,0,1,9.09-3.24h3.48A2.15,2.15,0,0,0,1019.58,948.16Z" class="cls-11"></path><path d="M1014.21,948.16a71.1,71.1,0,0,0,0-9.46,81,81,0,0,0-.8-9.46,71.1,71.1,0,0,0,0,9.46A66.59,66.59,0,0,0,1014.21,948.16Z" class="cls-11"></path><path d="M993.28,957.86a27.34,27.34,0,0,1-8.11.79,40.8,40.8,0,0,1-8.12,0c0-.31,3.54,0,8.12-.31A44,44,0,0,1,993.28,957.86Z" class="cls-11"></path><path d="M1004,957.31a6.67,6.67,0,0,0-.67,1.4,8,8,0,0,1-.67,1.34c-.31,0-.31-.85,0-1.64S1004,957.06,1004,957.31Z" class="cls-11"></path><path d="M1007.13,954.07c.49-.42.79-.85.67-1s-.67,0-1.16.61-.79.85-.67,1S1006.7,954.5,1007.13,954.07Z" class="cls-11"></path><path d="M1013.72,950.84c0,.31-.61.31-1.59.55a5.57,5.57,0,0,1-1.64.55,2.06,2.06,0,0,1,1.28-1.1A4.58,4.58,0,0,1,1013.72,950.84Z" class="cls-11"></path><path d="M1017.07,950.54c.49,0,.86-.43.74-.55s-.49,0-1,0-.85.42-.79.55S1016.59,950.72,1017.07,950.54Z" class="cls-11"></path><path d="M832.76,821.8,845.45,800l49.36,19.4L876.5,851.52l-3.23-1.1c-14-4.88-70.84-24.83-78.64-30.51S832.76,821.8,832.76,821.8Z" class="cls-9"></path><path d="M858.75,844.2a18.79,18.79,0,0,1,11.41-6.11,22.19,22.19,0,0,1,13.3,1.59L877,851.27Z" class="cls-10"></path><path d="M809.7,818.27s-16.91-2.14-15.93.55S851,843.65,877,851.76v-1.1l-66.26-25.32S812.32,819.36,809.7,818.27Z" class="cls-10"></path><path d="M878,851a2.69,2.69,0,0,1-1,0l-2.62-.8c-2.63-.79-5.55-1.89-9.09-3.23-7.81-2.68-18.31-6.77-29.9-11.35s-22.09-8.9-29.59-12.2c-3.54-1.59-6.47-2.68-8.72-3.78a11.73,11.73,0,0,1-2.32-1.1c-.61,0-1,0-.61-.49a3.16,3.16,0,0,1,1,0,8.17,8.17,0,0,1,2.26,1.1c2.26,1,5.55,2.14,8.79,3.78,7.44,3.24,17.87,7.26,29.53,11.84s22.08,8.66,29.89,11.35c3.6,1.34,6.53,2.44,9.09,3.23l2.63.85A3.44,3.44,0,0,0,878,851Z" class="cls-11"></path><path d="M810.67,825.83c-.3,0,.67-1.89.37-4.27a42.47,42.47,0,0,0-1.34-4.09,7.78,7.78,0,0,1,1.95,4.09A6.13,6.13,0,0,1,810.67,825.83Z" class="cls-11"></path><path d="M828.55,825.34v-2.19c0-1.22-.49-2.14-.67-2.08a5.14,5.14,0,0,0,0,2.14C828.06,824.43,828.36,825.34,828.55,825.34Z" class="cls-11"></path><path d="M833.61,825.16a3.81,3.81,0,0,0-.61-1.83c-.61-1-1-1.71-1.16-1.65s0,.92.55,1.83S833.43,825.22,833.61,825.16Z" class="cls-11"></path><path d="M838.25,822.48a13.78,13.78,0,0,0-2.5-1.22,7.1,7.1,0,0,0-2.81-.8,9.17,9.17,0,0,0,2.56,1.28A8,8,0,0,0,838.25,822.48Z" class="cls-11"></path><path d="M840.93,819.91a11.74,11.74,0,0,1-3.29-.55,6.76,6.76,0,0,1-2.93-1.58l2.93,1A16.7,16.7,0,0,0,840.93,819.91Z" class="cls-11"></path><path d="M829.22,821.26a12.08,12.08,0,0,1-3.23-1.35,19.26,19.26,0,0,1-2.93-1.89l-1.65-1.34a1.49,1.49,0,0,1,0-1.1c0-.55.61-.79,1-.79a6.09,6.09,0,0,1,6.46,4.33c.37.79,0,1.59,0,2.14a1,1,0,0,1-.3.79,4.68,4.68,0,0,0-.31-2.69,5.31,5.31,0,0,0-2-2.44,6.87,6.87,0,0,0-3.9-1.34c-.68,0-.68.79-.37,1.1a8.87,8.87,0,0,1,1.34,1.34,19.26,19.26,0,0,0,2.93,1.89C827.94,820.71,829.22,821,829.22,821.26Z" class="cls-11"></path><path d="M828.24,821a4,4,0,0,1,.67-1.89,4.82,4.82,0,0,1,5.5-1.89c.67,0,.67,1,.3,1.59a2.13,2.13,0,0,1-1.28,1.09c-1,.55-1.65.8-2.26,1.1-1.63.25-2.6.25-2.93,0a6.35,6.35,0,0,0,2.57-.55,22.18,22.18,0,0,0,2.31-1.1c.61,0,1.59-1.34,1-1.58a4.34,4.34,0,0,0-2.62,0c-1,0-1.28.79-2,1.34A6.58,6.58,0,0,0,828.24,821Z" class="cls-11"></path><path d="M883.15,839.38l-3.6-1.35a21.27,21.27,0,0,0-9.39-.3,24.35,24.35,0,0,0-8.48,3.78,16.71,16.71,0,0,0-2.56,2.69,1.9,1.9,0,0,1,.3-.8,5.28,5.28,0,0,1,2-1.89,15.16,15.16,0,0,1,8.42-4,17.81,17.81,0,0,1,9.76.55,11.72,11.72,0,0,1,2.63,1C883.15,839.07,883.46,839.38,883.15,839.38Z" class="cls-11"></path><path d="M883.34,828.82a67.75,67.75,0,0,0,4.39-8.72s-2.38,3.78-5,8.48a86.21,86.21,0,0,0-4.46,8.72A73.34,73.34,0,0,0,883.34,828.82Z" class="cls-11"></path><path d="M854.91,837.73a33.22,33.22,0,0,1-7.51-2.14,49,49,0,0,1-6.83-3.23c0-.31,3.23,1.34,7.14,2.68S854.91,837.73,854.91,837.73Z" class="cls-11"></path><path d="M864.61,841.51s-.61.55-1.29,1.1-1.28,1-1.28.79a1.73,1.73,0,0,1,1-1.34A2.68,2.68,0,0,1,864.61,841.51Z" class="cls-11"></path><path d="M869.24,839.86c.67,0,1.16-.48,1.1-.61s-.67,0-1.34,0-1.16.43-1.1.61S868.51,840.05,869.24,839.86Z" class="cls-11"></path><path d="M876.63,839.62a4.72,4.72,0,0,0-1.59,0h-1.65a2.82,2.82,0,0,1,1.65-.55C876.32,838.83,876.63,839.38,876.63,839.62Z" class="cls-11"></path><path d="M881,840.29h-2a1.94,1.94,0,0,1,1,.37A.64.64,0,0,0,881,840.29Z" class="cls-11"></path><path d="M1193.4,504.07l-11.71-48.81c-8.42-39.72-75.35-42.71-75.35-42.71l-52.66-.79s-39-4.33-63,18.3c-25,23.25-55.52,50.76-55.52,50.76l23.36,48.81,55.22-37.77a41.54,41.54,0,0,0-7.44,22.15c0,12.93,16.22,18.85,16.22,18.85l4.89,39.48-16.6,63.38,171.57-5.61a127.39,127.39,0,0,0-25.38-60l3.29-66.38Z" class="cls-12"></path><path d="M1119.64,449.77s.3,1.1,1,3a72.51,72.51,0,0,1,2,8.6c1.65,7.56,3.91,17.33,6.53,28.12s4.52,21,6.1,28.07c.61,3.48,1.29,6.47,1.59,8.6a22.83,22.83,0,0,1,.37,3.3l-1-3a86.12,86.12,0,0,1-2-8.67c-1.65-7.56-3.91-17.26-6.53-28.06s-4.52-21.05-6.1-28.07c-.67-3.53-1.28-6.46-1.65-8.66A25,25,0,0,1,1119.64,449.77Z" class="cls-11"></path><path d="M1162.53,502.42a299.67,299.67,0,0,0,31.85-.92c0-.42-14.28-.73-31.85-.73s-31.85.49-31.85.92A296.88,296.88,0,0,0,1162.53,502.42Z" class="cls-11"></path><path d="M1200.84,545.61c-3.23-23.24-7.75-43.19-7.75-43.19h-61s7.45,29.41,6.1,36.6c-1.64,5.8-119.27,10.07-149.78,10.07-1.95-1.1-4.58.79-6.83-.85A21.61,21.61,0,0,1,976.2,543a33.12,33.12,0,0,1-4.21-7.87,3.3,3.3,0,0,0-6.1-1c-1.29,2.14,0,9.46,6.1,16.48s-9.46,3.23-15,2.13a107.13,107.13,0,0,0-25-3.23c-2.62,1.64-1,4.33,4.52,5.67s22.09,5.67,21.48,8.12-29.23-4.34-29.23-4.34-6.1-2.19-6.83.55c-2,5.13,28.55,10.25,31.48,10.8,1.95,0,1.34,2.93-1,2.69s-28.25-7.33-30.2-1.9c-1.64,4,25.32,4.58,29.9,8.36s-20.5-2.13-21.78,1.65c-.61,1.34,9.76,2.14,24.4,3.78,14,1.59,39.6,1.35,45.82,1.35,34.41,1.58,156.25,3.78,182.24,2.13C1213.53,586.12,1201.94,553.42,1200.84,545.61Z" class="cls-13"></path><path d="M1007.86,505.41a34.55,34.55,0,0,1,1.95-6.53c.68-1.89,1.65-4.27,2.63-7l1.95-4c.31-.8,1-1.34,1-2.14a5,5,0,0,0,.3-2.19,25.38,25.38,0,0,0-1-4.58c-.31-1.34-.61-3-1-4.33-.61-2.69-1-5.13-1.59-7.26-1-4.09-1.34-6.77-1-6.77a30.73,30.73,0,0,1,2.25,6.46c.68,2.2,1.29,4.58,2,7.32.3,1.35.67,2.69,1,4.34a20.35,20.35,0,0,1,1,4.57A9,9,0,0,1,1017,486a12.48,12.48,0,0,1-1.34,2.13c-.61,1.4-1.28,2.75-1.95,4.09-1,2.44-2,4.82-2.93,6.71A29.46,29.46,0,0,1,1007.86,505.41Z" class="cls-11"></path><g class="cls-14"><path d="M1121.89,463c2.32,27,3.3,51.85,3.91,79.31a29.68,29.68,0,0,0,12.2-3.23C1139.77,527.25,1129.09,492.17,1121.89,463Z" class="cls-15"></path></g><path d="M1042.64,450.56a11.76,11.76,0,0,1,.67-6.1,12.18,12.18,0,0,1,3.23-5.67,24.48,24.48,0,0,1-1.64,6.1A18.45,18.45,0,0,1,1042.64,450.56Z" class="cls-16"></path><path d="M1008.23,450.32a8.41,8.41,0,0,1-4.88-2.44c-2.26-1.9-3.6-3.79-3.24-3.79a12.65,12.65,0,0,1,4.21,3A16.24,16.24,0,0,1,1008.23,450.32Z" class="cls-16"></path><path d="M975.1,472.71a1,1,0,0,1-.37-.8h.67a15.21,15.21,0,0,1,0,6.78,12.2,12.2,0,0,1-3.23,6.71c-.37,0,1-3.24,1.59-7,.67-2.68.67-5.12,1-6.47h.67C975.4,472.46,975.4,472.71,975.1,472.71Z" class="cls-16"></path><path d="M973.88,500.83c0-.42-2.75-1.77-6.59-3.05a17.73,17.73,0,0,0-7.32-1.46c0,.42,2.74,1.77,6.59,3A17.41,17.41,0,0,0,973.88,500.83Z" class="cls-16"></path><path d="M1001.39,485.4a8.33,8.33,0,0,1,.68-5.13c1-2.68,2.56-4.88,2.92-4.57a12.88,12.88,0,0,1-1.34,5.12C1002.68,483.26,1002.07,485.4,1001.39,485.4Z" class="cls-16"></path><path d="M1025.49,424.94c3.06,0,5.5-.55,5.5-1s-2.51-.67-5.56-.55-5.49.55-5.49,1S1022.44,425.06,1025.49,424.94Z" class="cls-16"></path><path d="M1036.78,476.49c-.3.3-2.93-1.34-4.51-4.33s-1.65-5.68-1.28-5.68a48.45,48.45,0,0,1,2.86,5.19C1035.2,474.35,1037.21,476.25,1036.78,476.49Z" class="cls-16"></path><path d="M1094.62,465.14c.31.31-1.59,2.44-4.88,4.64a16,16,0,0,1-6.1,3.23,29,29,0,0,1,5.18-4.33A29.43,29.43,0,0,1,1094.62,465.14Z" class="cls-16"></path><path d="M1062.1,461.18c2.44-1.47,4.15-3,3.85-3.36s-2.57.55-5,2.07-4.21,3-3.9,3.36S1059.66,462.7,1062.1,461.18Z" class="cls-16"></path><path d="M1079.92,438.42a13.43,13.43,0,0,1-6.84-3.23c-3.29-2.44-5.18-4.88-4.88-5.13a51.88,51.88,0,0,1,6.1,4A42,42,0,0,1,1079.92,438.42Z" class="cls-16"></path><path d="M1108.84,434.45c2.62-1.64,4.39-3.23,4.08-3.6s-2.68.68-5.24,2.32-4.4,3.18-4.09,3.54S1106.27,436,1108.84,434.45Z" class="cls-16"></path><path d="M1140.14,441.65a17.11,17.11,0,0,1,1-5.67,20.29,20.29,0,0,1,1.59-5.67,9.93,9.93,0,0,1,0,6.1C1142,439.27,1140.93,441.65,1140.14,441.65Z" class="cls-16"></path><path d="M1145,467.58c.36-.36-2-2.68-5.31-5.18a19.5,19.5,0,0,0-6.65-4c-.37.37,2,2.62,5.31,5.19A19,19,0,0,0,1145,467.58Z" class="cls-16"></path><path d="M1170.64,451.48c1.53-2.87,2.32-5.37,1.77-5.5s-2.07,2-3.54,4.89-2.25,5.36-1.77,5.55S1169.18,454.59,1170.64,451.48Z" class="cls-16"></path><path d="M1173.08,482.41c2.2-3.3,3.54-6.1,3.05-6.1s-2.56,2.31-4.76,5.55-3.47,6.1-3,6.1S1171,485.64,1173.08,482.41Z" class="cls-16"></path><path d="M1146.54,492.54c.43,0-1.16-2.57-3.54-5.19s-4.63-4.58-5.06-4.27,1.16,2.62,3.54,5.25S1146.12,492.84,1146.54,492.54Z" class="cls-16"></path><path d="M1105.36,506.38a19.44,19.44,0,0,1,4.51-7.8,23.65,23.65,0,0,1,6.65-6.72c.37,0-2.25,3.24-5.49,7.33S1105.66,506.38,1105.36,506.38Z" class="cls-16"></path><path d="M1075.4,503.58c.49,0-.85-3.24-3-6.9s-4.21-6.1-4.7-6.1.86,3.3,3,7S1074.91,503.82,1075.4,503.58Z" class="cls-16"></path><path d="M1031.11,502.3c4.09-2.93,7.08-5.56,6.71-6.1a26.9,26.9,0,0,0-8,4.69c-4,3-7,5.62-6.65,6.1A26.72,26.72,0,0,0,1031.11,502.3Z" class="cls-16"></path><path d="M1052.4,530.24a41.44,41.44,0,0,1-6.53-5.13c-3.54-3-6.46-5.12-6.1-5.43a21.83,21.83,0,0,1,7.51,4.58C1050.45,527,1052.71,529.93,1052.4,530.24Z" class="cls-16"></path><path d="M1078.39,530.79a11.68,11.68,0,0,1,2.93-6.77c2.56-3.48,5.49-5.68,6.1-5.37a34.44,34.44,0,0,1-4.27,6.1C1080.65,528.35,1079.06,531.28,1078.39,530.79Z" class="cls-16"></path><path d="M1115.18,534.63c.37,0-2.74-2.93-6.83-5.79a28,28,0,0,0-8.12-4.58c-.36.37,2.69,3,6.84,6.1A25,25,0,0,0,1115.18,534.63Z" class="cls-16"></path><path d="M1111.83,454.34a16.06,16.06,0,0,1-6.78-2.68c-3.6-2.14-5.55-4.33-5.24-4.58a30,30,0,0,1,6.1,3.48C1109.57,452.45,1112.19,453.79,1111.83,454.34Z" class="cls-16"></path><path d="M1058.87,592.59c.36,0-2.56,1.65-5.49,3.23s-5.19,3.54-5.56,3.24,1.35-2.44,4.58-4.33A12.91,12.91,0,0,1,1058.87,592.59Z" class="cls-16"></path><path d="M1098.22,605.89c.49,0,0-3-1.83-6.1s-3.05-6.1-3.6-6.1,0,3,1.77,6.1S1097.73,606.07,1098.22,605.89Z" class="cls-16"></path><path d="M1133.36,599.36c2.87-2.44,4.88-4.69,4.52-5s-3.05,1.4-6.1,3.9-4.82,4.76-4.46,5.07S1130.56,601.86,1133.36,599.36Z" class="cls-16"></path><path d="M1167.1,612.05a44.82,44.82,0,0,0-6.83-2.19,34.08,34.08,0,0,0-7.14,0,11.82,11.82,0,0,1,14,2.44Z" class="cls-16"></path><path d="M1183.64,624.19S959.11,585,937.7,593.69,815.67,808,815.67,808l80.6,28.92L983,662s156.92,47.83,184.56,42.71S1183.64,624.19,1183.64,624.19Z" class="cls-17"></path><path d="M1082.91,635c-3.54,1-133.19,45.33-142.28,59.67s13.36,251,13.36,251h73.7l-4.51-210.36,143.92-30.2Z" class="cls-17"></path><path d="M1168.08,705.46a15,15,0,0,1-2.32,0c-1.59,0-3.54-.55-6.1-.79-5.19-.8-12.69-2.14-22.09-3.79-18.3-3.23-44.17-8.11-72.11-14.82-14-3.24-27.27-6.77-39-10.25s-22.39-6.77-31.18-10a111.07,111.07,0,0,1-11.71-4.33c-3.54-1.34-6.47-2.44-8.79-3.54s-4.21-1.58-5.49-2.13l-1.95-.8,1.95.55a51.54,51.54,0,0,1,5.49,2.14c2.32.79,5.56,1.89,8.79,3.23s7.5,2.69,12.2,4.09c8.79,2.93,19.53,6.1,31.18,9.7s25,6.71,39,10.25c27.94,6.77,53.62,11.59,72.11,15.13,9.09,1.59,16.6,3.23,22.09,4,2.62.55,4.57.79,6.1,1.09A10.2,10.2,0,0,1,1168.08,705.46Z" class="cls-11"></path><path d="M940.63,748.9a14.08,14.08,0,0,0-.61-3.48c-.61-2.13-.67-6.1-1.35-9.76s-1-9.15-1.58-14.28a52.72,52.72,0,0,1,0-17.81,26.94,26.94,0,0,1,10.68-15.38,58.93,58.93,0,0,1,14.64-7.87c4.57-1.58,8.42-2.68,11-3.47a29.28,29.28,0,0,1,4.21-1.1s-6.1,1.89-14.58,5.37A68.27,68.27,0,0,0,948.74,689a26.45,26.45,0,0,0-10.07,14.82,55.09,55.09,0,0,0,0,17.57c.37,5.37,1,10.25,1.35,14.28s.61,7.32.61,9.76S941,748.9,940.63,748.9Z" class="cls-11"></path><path d="M1022.75,735.11a24.69,24.69,0,0,0-8.24-3.9,27.1,27.1,0,0,0-9-2.38,24.46,24.46,0,0,0,8.24,3.84A26.65,26.65,0,0,0,1022.75,735.11Z" class="cls-11"></path><path d="M1012.13,722.18a79.53,79.53,0,0,1,6.1,7c3.24,3.78,6.78,6.1,6.47,6.47a19.51,19.51,0,0,1-7.81-5.68C1013.11,726,1011.46,722.42,1012.13,722.18Z" class="cls-11"></path><path d="M1040.38,732.12a4.44,4.44,0,0,1-1,1.1,9.54,9.54,0,0,1-4.21.79,51.9,51.9,0,0,0-6.11,0,3.66,3.66,0,0,0-3.6,3.72v.06a64.14,64.14,0,0,1-1,16.48,75.73,75.73,0,0,1-.67-16.48,5.18,5.18,0,0,1,1.34-3.47,7.11,7.11,0,0,1,3.54-1.65,24.61,24.61,0,0,1,6.53,0A16.11,16.11,0,0,0,1040.38,732.12Z" class="cls-11"></path><path d="M1022.5,592.35l153,10.25L1169,588.26l-144.84-1.59Z" class="cls-15"></path><path d="M1436.41,564.53H534.9v20h48.38l-25,379.84,14,.86,24.4-380.7h790.72l21.11,380.39h14L1401,584.48h35.45Z" class="cls-18"></path><path d="M798,446.29l50,121.47h226.11l-1.65-6.1L981,559.22,938.8,446.41Z" class="cls-12"></path><path d="M898.41,503.52A8.11,8.11,0,0,1,893.63,514a9,9,0,0,1-1.32.37,9.83,9.83,0,0,1-11-7A8.11,8.11,0,0,1,886,496.87a8.62,8.62,0,0,1,1.32-.37A9.4,9.4,0,0,1,898.41,503.52Z" class="cls-5"></path><path d="M1114.76,376.07a37.21,37.21,0,0,1,9.45-14.83l-.36.49a23.22,23.22,0,0,1,21.47-10.8,22.2,22.2,0,0,1,20,12.69,17,17,0,0,1-7.13,19.71,4.77,4.77,0,0,1,5.49,3.54,6.1,6.1,0,0,1-2,6.1,20.94,20.94,0,0,1-24.4,3.54,17.39,17.39,0,0,1-19.16-3.24A15.77,15.77,0,0,1,1114.76,376.07Z" class="cls-19"></path><path d="M1128.73,314.75c-2.63-6.1-15.26-11.83-22.09-15.07a24.91,24.91,0,0,0-26,.55c-10.74-7.32-24.41-14.58-38.32-11.65s-24.4,14.34-22.14,25.68c1.34,6.72,7.2,12.69,6.83,19.41a33.76,33.76,0,0,1-5.49,13,14.63,14.63,0,0,0-1.95,13.48c1.95,4,6.83,6.47,9.39,10.25a36.82,36.82,0,0,1,3.91,10c5.18,12.2,22.75,19.16,38.31,17A51.56,51.56,0,0,0,1107,374.18a78.6,78.6,0,0,0,10.73-37.83" class="cls-20"></path><path d="M1116.52,323.36c-2.56,34.83-7.44,70.46-3.23,102.61-1,11.84-14.28,20.26-29.59,19.16s-30.51-12.2-26.3-23.49c3.91-10.25,3.6-24.4,1.65-25.68a28.61,28.61,0,0,1-21.84-24.77,185.36,185.36,0,0,1,3.23-42.71c2-12.2,15.32-20,29.59-18.3" class="cls-13"></path><path d="M1046.54,343.67c-.3,1.34,1.28,2.69,2.93,3a3.11,3.11,0,0,0,3.6-2.2c.31-1.34-1.34-2.68-2.93-2.92S1046.54,342.33,1046.54,343.67Z" class="cls-21"></path><path d="M1043.31,341a28.86,28.86,0,0,1,6.47-.86c3.6,0,6.1,1.89,6.53,1.41s0-.86-1.29-1.65a10.61,10.61,0,0,0-10.43-.55C1043.62,340.13,1043.31,340.68,1043.31,341Z" class="cls-21"></path><path d="M1080.34,346.66a3.31,3.31,0,0,0,2.93,2.93,2.93,2.93,0,0,0,3.54-2.14c.37-1.34-1.28-2.68-2.93-3A3.06,3.06,0,0,0,1080.34,346.66Z" class="cls-21"></path><path d="M1077.72,343.43a30,30,0,0,1,6.53-.86c3.54.31,6.1,1.89,6.47,1.35s0-.8-1.28-1.59a10.51,10.51,0,0,0-10.38-.55C1078.09,342.57,1077.72,343.12,1077.72,343.43Z" class="cls-21"></path><path d="M1063.44,364.17a23.75,23.75,0,0,0-5.55-1,1.94,1.94,0,0,1-1.89-.85c-.37-.55,0-1.34.61-2.14s2-3.53,3.23-5.43a120.65,120.65,0,0,0,7.2-14.27,86.22,86.22,0,0,0-8.48,13.79c-1,1.89-2,3.78-2.93,5.36a4.21,4.21,0,0,0-.61,3,2.15,2.15,0,0,0,1.29,1,2.83,2.83,0,0,0,1.58,0A37.37,37.37,0,0,0,1063.44,364.17Z" class="cls-21"></path><path d="M1059.54,396a77,77,0,0,0,34.78-5.62s-8.12,14.83-33.5,11.6Z" class="cls-22"></path><path d="M1077.72,331.77c.37.86,3.91.55,7.81,1.35s7.5,1.64,8.11,1.09-.3-1.09-1.58-1.89a19.78,19.78,0,0,0-6.1-2.13,13.65,13.65,0,0,0-6.1,0C1078.39,331,1077.72,331.53,1077.72,331.77Z" class="cls-21"></path><path d="M1045.26,332.63c.61.79,2.93,0,6.1,0s5.19.79,5.8,0,0-1.1-.92-1.65a7.75,7.75,0,0,0-4.88-1.34,11,11,0,0,0-4.88,1.1C1045.57,331.53,1044.9,332.32,1045.26,332.63Z" class="cls-21"></path><path d="M1069,369.6a11.37,11.37,0,0,0-6.53,1.89,3.61,3.61,0,0,0-1.65,1.34,2.31,2.31,0,0,0,.37,2.44,6.43,6.43,0,0,0,6.1,2.44c2.26,0,4.51-1.64,4.82-3.53A4.34,4.34,0,0,0,1069,369.6Z" class="cls-22"></path><path d="M1059.54,374.42c0,.31,1,.55,2.26.55a15.69,15.69,0,0,0,5.55-1.34,16.4,16.4,0,0,0,4.51-3c1-1,1.35-1.59,1-1.83a38,38,0,0,0-6.47,3.47l-4.88,1.9C1060.52,373.93,1059.54,374.18,1059.54,374.42Z" class="cls-21"></path><path d="M1076.74,356.36a.85.85,0,1,0-1-.79A.91.91,0,0,0,1076.74,356.36Z" class="cls-22"></path><path d="M1050.45,352.58a.85.85,0,1,0-1-.79A.92.92,0,0,0,1050.45,352.58Z" class="cls-22"></path><path d="M1045.26,354.71a.79.79,0,1,0-1-.79A.91.91,0,0,0,1045.26,354.71Z" class="cls-22"></path><path d="M1043.62,351.48a.79.79,0,1,0-1-.79A.91.91,0,0,0,1043.62,351.48Z" class="cls-22"></path><path d="M1081.32,360c.55,0,1,0,1-.79a1,1,0,0,0-2,0A1,1,0,0,0,1081.32,360Z" class="cls-22"></path><path d="M1084.55,356.61a.8.8,0,0,0,.59-1,.79.79,0,0,0-1-.59.8.8,0,0,0-.61.75A.92.92,0,0,0,1084.55,356.61Z" class="cls-22"></path><path d="M1068.32,346.66a12.32,12.32,0,0,1,.68-3.23,14.75,14.75,0,0,1,5.79-7.32,18.17,18.17,0,0,1,6.84-2.44,24,24,0,0,1,8.48.54,17.82,17.82,0,0,1,3.9,1.9,15.11,15.11,0,0,1,3.23,2.68,13.57,13.57,0,0,1,3.24,7.87,10.42,10.42,0,0,1-3.24,7.81,9.51,9.51,0,0,1-3.23,2.68,24.65,24.65,0,0,1-3.9,1.9,18.31,18.31,0,0,1-8.48.54,17.45,17.45,0,0,1-6.84-2.44,12.73,12.73,0,0,1-5.79-7.26c-.68-2.19-.37-3.23-.68-3.23v1.89a2.24,2.24,0,0,0,.31,1.34,32.51,32.51,0,0,0,1.65,3.48,12,12,0,0,0,4.21,3.78,17.1,17.1,0,0,0,6.83,2.44,25.74,25.74,0,0,0,8.79-.54,17.72,17.72,0,0,0,4.21-1.9,11.43,11.43,0,0,0,3.53-2.92,12.64,12.64,0,0,0,3.3-8.12,12.18,12.18,0,0,0-3.3-8.11,18.65,18.65,0,0,0-3.53-3,20.39,20.39,0,0,0-4.21-1.89,19.51,19.51,0,0,0-8.79-.49,20.73,20.73,0,0,0-6.83,2.38,12.72,12.72,0,0,0-4.21,3.78,6.54,6.54,0,0,0-1.65,3.54,2.72,2.72,0,0,0-.31,1.34Z" class="cls-5"></path><path d="M1061.61,342.57a9.54,9.54,0,0,1,3.91,0,9.15,9.15,0,0,1,3.6,1.1l-1-.85a7.81,7.81,0,0,0-2.62-.8,9.6,9.6,0,0,0-2.93,0A5.57,5.57,0,0,0,1061.61,342.57Z" class="cls-5"></path><path d="M1071.56,307.49c2.26,16.72,17.2,31.85,36.61,36.61-6.11,7.56-2.26,21.6-2.63,33.49s0,14,8.48,19.71c7.14,1.34,11.35-14.89,16.54-19.22s10.43-9.94,10.06-16.47A81.24,81.24,0,0,1,1139,353a33.54,33.54,0,0,1,1.58-9.7c3.3-14.34-6.1-29.47-20.8-37a58,58,0,0,0-50,.55" class="cls-20"></path><path d="M1138.79,351.79l.67-.55a7.86,7.86,0,0,0,1.29-2.2,9.89,9.89,0,0,0-1.59-8.05,15.15,15.15,0,0,0-4.27-4.64,30.39,30.39,0,0,0-6.1-4.27,31.19,31.19,0,0,0-7.81-3.23c-2.87-.86-5.8-1.41-9.09-2.2s-6.1-1.34-9.09-2.14a71.85,71.85,0,0,1-8.12-3,51.75,51.75,0,0,1-12.2-7,64.81,64.81,0,0,1-6.83-6.1c-.61-.86-1.28-1.34-1.59-1.89s-.67-.55-.67-.55l.67.55a8.3,8.3,0,0,1,1.59,1.89,40.83,40.83,0,0,0,6.83,6.1,77.31,77.31,0,0,0,12.2,7.32,75.94,75.94,0,0,0,8.12,3c2.93.79,6.1,1.59,9.09,2.13a88.82,88.82,0,0,1,9.09,2.14,31.58,31.58,0,0,1,7.81,3.29,46.76,46.76,0,0,1,6.1,4.28,12.48,12.48,0,0,1,3.9,4.63,9.44,9.44,0,0,1,1.65,7.81A7.2,7.2,0,0,1,1138.79,351.79Z" class="cls-19"></path><path d="M1073.82,306.15l.67.55,1.58,1.34a42.64,42.64,0,0,0,6.53,4.82,41.4,41.4,0,0,0,11,5.43,36,36,0,0,0,7.45,1.65,81.71,81.71,0,0,0,8.11,1,128.71,128.71,0,0,1,15.62,2.68,45.71,45.71,0,0,1,11.35,5.19,17.49,17.49,0,0,1,5.55,5.61,6.93,6.93,0,0,0,1,1.89v.55a.86.86,0,0,0,0-.55,3.91,3.91,0,0,0-1-1.89,20,20,0,0,0-5.18-5.61,36,36,0,0,0-11.41-5.43,88.26,88.26,0,0,0-15.56-2.69c-2.93,0-5.55-.79-8.12-1.1a62.08,62.08,0,0,1-7.5-1.58,44.46,44.46,0,0,1-11-5.43,35.88,35.88,0,0,1-6.47-4.88l-1.65-1.35A3.29,3.29,0,0,0,1073.82,306.15Z" class="cls-19"></path><path d="M1044.9,287.79a25.93,25.93,0,0,1,5.55.79l2.62.79a14.35,14.35,0,0,1,2.93,1.1,53.46,53.46,0,0,1,6.47,3.23,35.26,35.26,0,0,1,5.18,4.34c.67.79,1.35,1.34,2,2.13s1,1.4,1.64,2.2a22.86,22.86,0,0,1,2.26,4.33,4.3,4.3,0,0,0,0-1.34,4.69,4.69,0,0,0-.67-1.41,8.92,8.92,0,0,1-1-1.89,13.51,13.51,0,0,1-1.28-2.13l-1.95-2.14a40.2,40.2,0,0,0-5.55-4.63,39.5,39.5,0,0,0-6.47-3.24c-1,0-1.95-.79-3.23-1a10.11,10.11,0,0,0-2.93-.54,6.46,6.46,0,0,0-2.32,0h-2Z" class="cls-19"></path><path d="M1026.71,367.71h0c-.3-.31-.3-.55-.61-.79a13.56,13.56,0,0,1-1.95-1.9,22.39,22.39,0,0,1-2.32-3.53,6.67,6.67,0,0,1,0-2.44,5.52,5.52,0,0,1,1.28-2.69c1.35-1.65,3.3-3.23,4.89-5.12a27,27,0,0,0,4.88-6.47,32.92,32.92,0,0,0,2.93-8.11,88.42,88.42,0,0,0,.3-8.91,26.52,26.52,0,0,1,1-8.91,19.47,19.47,0,0,1,4.88-7.32,20,20,0,0,1,7.5-4.27,19.23,19.23,0,0,1,7.75-1.4,28.59,28.59,0,0,1,11.1,1.89c1.29.55,1.9,1.09,2.57,1.4a1.1,1.1,0,0,0,.67,0h0a16.5,16.5,0,0,0-3.54-1.89,23.36,23.36,0,0,0-11.41-2.14,25.33,25.33,0,0,0-7.81,1.35,27.86,27.86,0,0,0-7.44,4.33,16.77,16.77,0,0,0-4.88,7.26,27.56,27.56,0,0,0-1,8.9,42.8,42.8,0,0,1-.3,8.91,23.82,23.82,0,0,1-2.63,8.12,36.66,36.66,0,0,1-4.51,6.46,59.08,59.08,0,0,0-4.88,5.13,11.24,11.24,0,0,0-1.35,2.68,7.33,7.33,0,0,0,.37,2.75,11.91,11.91,0,0,0,2.26,3.48c1,.79,1.64,1.64,2,1.89S1026.41,367.4,1026.71,367.71Z" class="cls-19"></path><path d="M1029.34,343.43a12.82,12.82,0,0,1,.67-3.3,14.75,14.75,0,0,1,6.1-7.26,18.36,18.36,0,0,1,6.83-2.44,24,24,0,0,1,8.48.55,18.09,18.09,0,0,1,3.91,1.89,13.69,13.69,0,0,1,3.23,2.69,13.54,13.54,0,0,1,3.24,7.87,10.51,10.51,0,0,1-3.24,7.81,9.63,9.63,0,0,1-3.23,2.68,31.28,31.28,0,0,1-3.91,1.89,18.17,18.17,0,0,1-8.48.55,17.57,17.57,0,0,1-6.83-2.44,12.7,12.7,0,0,1-6.1-7.26c-.67-2.2-.37-3.23-.67-3.23v1.83a2.39,2.39,0,0,0,0,1.4,32.51,32.51,0,0,0,1.65,3.48,12.72,12.72,0,0,0,4.21,3.78,17.14,17.14,0,0,0,6.83,2.44,25.42,25.42,0,0,0,8.78-.55,20.37,20.37,0,0,0,4.7-1.95,10.85,10.85,0,0,0,3.54-3,11.59,11.59,0,0,0,0-16.17,17.64,17.64,0,0,0-16.53-5.43,22.47,22.47,0,0,0-6.84,2.44,12.88,12.88,0,0,0-4.57,3.85,6.54,6.54,0,0,0-1.65,3.54,2.54,2.54,0,0,0,0,1.34v3Z" class="cls-5"></path><path d="M1114.76,397.91a1.09,1.09,0,0,0,.67,0,5,5,0,0,0,1.64-1.1,45.87,45.87,0,0,0,5.19-3.78,15,15,0,0,0,4.88-7.57,27.37,27.37,0,0,0,0-5.12,6.65,6.65,0,0,1,1.65-4.82,28.69,28.69,0,0,1,4.51-4.09,13.23,13.23,0,0,0,3.6-4,11.38,11.38,0,0,0,1.59-4.33,8.2,8.2,0,0,0,.36-4,8.62,8.62,0,0,0-.67-3.24v-2.44c.31-1.34.67-2.19.31-2.19a.72.72,0,0,1-.31.54,11.36,11.36,0,0,0,0,1.65v5.68a16.52,16.52,0,0,1-2.25,8.11,19.73,19.73,0,0,1-3.6,4,31.39,31.39,0,0,0-4.52,4,4.72,4.72,0,0,0-1.34,2.44,8.16,8.16,0,0,0-.31,2.69,23.41,23.41,0,0,1,0,4.88,12.81,12.81,0,0,1-4.57,7.26c-1.56,1.44-3.19,2.81-4.88,4.09l-1.28,1.09C1114.76,397.66,1114.76,397.91,1114.76,397.91Z" class="cls-19"></path><path d="M1127.45,376.31v1.4a10.56,10.56,0,0,0,1,3.73,16.05,16.05,0,0,0,3.24,5.18,21.47,21.47,0,0,0,6.52,4.82,22.39,22.39,0,0,0,8.42,2.44,34.08,34.08,0,0,0,7.14,0,24.85,24.85,0,0,0,4.58-1.1c.61,0,1,0,1.28-.54s.3,0,.3,0a36.52,36.52,0,0,1-6.46,1.34,28.43,28.43,0,0,1-7.14,0,22.68,22.68,0,0,1-8.12-2.44,21.63,21.63,0,0,1-6.52-4.82,27.39,27.39,0,0,1-3.54-5.13A19.14,19.14,0,0,1,1127.45,376.31Z" class="cls-20"></path><path d="M1131.66,372.16a3.76,3.76,0,0,0,.36,1.35,11.85,11.85,0,0,0,1.59,3.23,22.8,22.8,0,0,0,9.45,8.36,30.65,30.65,0,0,0,13.61,3.23,19.75,19.75,0,0,0,4.21,0,4.46,4.46,0,0,0,1.65-.3,29.61,29.61,0,0,1-6.1,0,39.43,39.43,0,0,1-13.06-3.67,27.09,27.09,0,0,1-9.46-8.11C1132.33,373.93,1132,372.16,1131.66,372.16Z" class="cls-20"></path><path d="M1164.78,362.83a5.16,5.16,0,0,0-1-.55,6.86,6.86,0,0,0-1.28-.55l-1.65-.49c-1.28-.3-2.87-.55-4.51-.85h-6.11a35.16,35.16,0,0,0-5.55,1.1,14.9,14.9,0,0,0-4.21,1.89l-1.58.79-1,.85c-.67.49-1,.8-.67.8q1.76-1,3.6-1.89a24.52,24.52,0,0,1,4.21-1.65,28.45,28.45,0,0,1,5.49-1,17.22,17.22,0,0,1,5.55,0,24.52,24.52,0,0,1,4.52.49C1163.2,362.28,1164.48,362.83,1164.78,362.83Z" class="cls-20"></path><path d="M1140.14,360a126.58,126.58,0,0,0,14.58-9.94c8.78-6.1,15.62-11.35,15.62-11.35s-7.51,4.33-15.93,10.49A162.86,162.86,0,0,0,1140.14,360Z" class="cls-10"></path><path d="M1106.34,350.93a8.81,8.81,0,0,0-2.26-2.13c-1.65-1.1-2.93-1.65-2.93-1.35a23.89,23.89,0,0,1,2.56,1.9A14.34,14.34,0,0,1,1106.34,350.93Z" class="cls-5"></path><path d="M1137.82,356.12h0c.36,0,.36-.55.67-.86a10.71,10.71,0,0,0,1-2.44,11.68,11.68,0,0,0-5.55-10.8,12.17,12.17,0,0,0-3.23-1.89,32.51,32.51,0,0,0-8.42-2.38c-6.1-1.09-13-.85-19.83-1.64a36.87,36.87,0,0,1-9.76-2.44,26.64,26.64,0,0,1-7.44-4.82,39.26,39.26,0,0,1-8.79-11.6c-2-3.53-2.93-6.46-3.91-8.35a10.71,10.71,0,0,0-1-2.44.86.86,0,0,0,0-.55h0v.55a10.71,10.71,0,0,1,1,2.44,76.16,76.16,0,0,0,3.6,8.6,42,42,0,0,0,8.73,11.35,30.18,30.18,0,0,0,17.88,7.26c7.13.85,14,.55,19.82,1.64a23.36,23.36,0,0,1,14,6.1,8.72,8.72,0,0,1,2.92,8.36A9.34,9.34,0,0,1,1137.82,356.12Z" class="cls-16"></path><path d="M1130.68,392.78a9,9,0,0,0,1.34,3.79,35.2,35.2,0,0,0,2.87,4.08,28.92,28.92,0,0,0,5.55,4,21.15,21.15,0,0,0,8.79,1.89,17.66,17.66,0,0,0,9.7-2.44,13.42,13.42,0,0,0,6.4-7.56,8.47,8.47,0,0,0,0-5.13,15.73,15.73,0,0,0-2.25-4.82,14.3,14.3,0,0,0-8.42-4.88v.55a29.84,29.84,0,0,0,9.7-3.23,18.72,18.72,0,0,0,6.1-6.1,14.08,14.08,0,0,0,1.65-7,10.92,10.92,0,0,0-2.57-5.67,13.54,13.54,0,0,0-4.57-3.48,15.66,15.66,0,0,0-4.21-1.34,12.06,12.06,0,0,0-2.93-.31h-1a11.21,11.21,0,0,1,3.91.31,15.66,15.66,0,0,1,4.21,1.34,12,12,0,0,1,4.21,3.48,9.33,9.33,0,0,1,2.26,5.67,10.3,10.3,0,0,1-1.59,6.77,18.34,18.34,0,0,1-6.1,6.1,24.94,24.94,0,0,1-9.4,3.24h0a14.77,14.77,0,0,1,8.12,4.57,9.15,9.15,0,0,1,2.25,4.64,8.66,8.66,0,0,1,.61,5.31,13.47,13.47,0,0,1-6.1,7.32,19.48,19.48,0,0,1-17.81.55,19.19,19.19,0,0,1-5.55-3.79,24.34,24.34,0,0,1-2.93-3.78c-.61-1.1-1-2.19-1.28-2.74S1131.05,393.33,1130.68,392.78Z" class="cls-19"></path><path d="M1137.51,352.82a1,1,0,0,0,1-.49,30,30,0,0,0,2.93-1.64,20.52,20.52,0,0,0,7.14-8.36,15.46,15.46,0,0,0-1-14.89,21.43,21.43,0,0,0-6.65-7,41.17,41.17,0,0,0-10.37-4.27,55.19,55.19,0,0,0-11.72-1.65c-3.9,0-7.44-.55-10.74-.55l-9.88-.79a58.92,58.92,0,0,1-8.11-1.89,33.44,33.44,0,0,1-10.44-5.43c-1-.8-1.58-1.59-2.25-2.14s-.31-.55-.68-.55h0a10.23,10.23,0,0,0,2.63,2.93,27.35,27.35,0,0,0,10.37,5.67,56.59,56.59,0,0,0,8.42,1.89,94,94,0,0,0,9.76,1.1,138.66,138.66,0,0,1,22.45,2.44,38.71,38.71,0,0,1,10.38,4,24.39,24.39,0,0,1,6.28,6.53,15.7,15.7,0,0,1,1,14.58,22.39,22.39,0,0,1-6.84,8.36,12.26,12.26,0,0,1-2.62,1.64A6.58,6.58,0,0,0,1137.51,352.82Z" class="cls-19"></path><path d="M1012.13,339.34a2.88,2.88,0,0,0,1,.55,3,3,0,0,0,2.56-1.34,1.75,1.75,0,0,0,0-1.89,4.41,4.41,0,0,0-2.26-1.65,7.93,7.93,0,0,0-6.83.85,6.83,6.83,0,0,0-2.56,2.69,5,5,0,0,0-.37,3.78,7.11,7.11,0,0,0,2.63,3.48,12.08,12.08,0,0,0,4.88,1.64,15.66,15.66,0,0,0,10.06-3.23,11.14,11.14,0,0,0,3.24-4.09,8.32,8.32,0,0,0,.55-4.57,12.2,12.2,0,0,0-2-4.58c-.67-1.4-1.34-3-1.95-4.33a28.92,28.92,0,0,1-2.26-8.66,19.9,19.9,0,0,1,3.85-14.59,24.53,24.53,0,0,1,9.09-6.71,23.92,23.92,0,0,1,3.29-1.09,1.38,1.38,0,0,0,1,0h-1a10.44,10.44,0,0,0-3.29.85,21.34,21.34,0,0,0-9.09,6.71,22.53,22.53,0,0,0-3.24,6.53,21.63,21.63,0,0,0-.54,7.56,27.7,27.7,0,0,0,2.25,8.91c.61,1.34,1.28,3,2,4.33a21.22,21.22,0,0,1,1.58,4.58,7.51,7.51,0,0,1-.61,4.64,12.26,12.26,0,0,1-2.93,3.78,11.19,11.19,0,0,1-14,1.58,4.9,4.9,0,0,1-2.26-3.23,4.3,4.3,0,0,1,.31-3.54,6.08,6.08,0,0,1,2.26-2.68,7.2,7.2,0,0,1,6.52-.8,5.67,5.67,0,0,1,2.26,1.35c0,.55.67,1.34,0,1.89s-1.95,1.65-2.56,1.34C1012.44,339.64,1012.44,339.1,1012.13,339.34Z" class="cls-11"></path><path d="M1067,439.76s6.1,4.88,5.49,8.42a56.42,56.42,0,0,1,10.38-3.29,2.63,2.63,0,0,0,2.92-2.29.28.28,0,0,1,0-.09,61.68,61.68,0,0,0-4.82-4.88,32.47,32.47,0,0,1-4.28-1.35Z" class="cls-13"></path><path d="M1112.5,413.59s-5.19,29.71-29.23,31.6l1.59,1.59,15.31-.49,4.21-3.78a36.07,36.07,0,0,0,10.07-3.3C1121.28,436,1112.5,413.59,1112.5,413.59Z" class="cls-12"></path><path d="M1153.13,660.37S1017.62,621.2,957.22,622.3c0,0-62.72,82.3-82.18,167.9" class="cls-23"></path><path d="M280.11,834.68h96.16" class="cls-24"></path><path d="M280.11,898.49h96.16" class="cls-24"></path><path d="M177.67,815.09l-25.13,95H500.3l-17.69-95Z" class="cls-3"></path><path d="M330.14,895.93c84.2,0,152.53-32.46,152.53-72.48S414.4,751,330.14,751s-152.53,32.46-152.53,72.48S245.94,895.93,330.14,895.93Z" class="cls-25"></path><path d="M330.14,888.61c84.2,0,152.53-32.46,152.53-72.48s-68.27-72.48-152.53-72.48-152.53,32.46-152.53,72.48S245.94,888.61,330.14,888.61Z" class="cls-2"></path><path d="M221.78,850.42h220.5S336.3,755.61,221.78,850.42Z" class="cls-3"></path><path d="M389,854.14c7.2-8,9.88-15.62,8-22.33a12.56,12.56,0,0,0-1.65-3.54l-1.16-14.76c-.61-12.57-8.05-15.62-16.78-14.46l-86.94,13.11V807l-7.38,6.1H270.29l-7.44-6.1v27a6.83,6.83,0,0,0,7.44,6.1h17.26a11.13,11.13,0,0,0,2.51-.31,12.11,12.11,0,0,0,2.68.31H298a6.85,6.85,0,0,0,0,3.54,6.09,6.09,0,0,0,6.1,4.51h1A5.74,5.74,0,0,0,310.5,843a22.68,22.68,0,0,1,6.77-2.74H353a6.28,6.28,0,0,0,6.1,8h.86a5.74,5.74,0,0,0,5.43-5.24,22.78,22.78,0,0,1,6.83-2.75h14.95a26.44,26.44,0,0,1-6.1,9.21,21.1,21.1,0,0,0-4.89,9.09,10.87,10.87,0,0,0,3.36,12.21,6.11,6.11,0,0,0,3.42,1,5.57,5.57,0,0,0,3.78-1.34,3.6,3.6,0,0,0,.85-5,3.43,3.43,0,0,0-1.22-1.08c-.48-.43-.85-1.89,0-4.33A14.39,14.39,0,0,1,389,854.14Z" class="cls-5"></path><path d="M271.81,829.13a11.31,11.31,0,0,1,7.94,0" class="cls-26"></path><path d="M1118.42,180.41h184.07" class="cls-27"></path><path d="M1087.12,207.44h169.73" class="cls-27"></path><path d="M1039.34,234.77h228.25" class="cls-27"></path><path d="M1057.83,153.26h159.49" class="cls-27"></path><path d="M1133.3,211.89v18.3" class="cls-27"></path><path d="M1133.3,157.9v18.3" class="cls-27"></path><path d="M1201.94,211.89v18.3" class="cls-27"></path><path d="M1201.94,157.59v18.3" class="cls-27"></path><path d="M1166.49,184.74V203" class="cls-27"></path><path d="M1236.9,184.74V203" class="cls-27"></path><path d="M1605.54,831.63a52.21,52.21,0,0,1,31.17-39.54,32.6,32.6,0,0,0,20-22.94,22.93,22.93,0,0,0,0-10.8,57.31,57.31,0,0,1-2.86-23.85,29.38,29.38,0,0,1,7.38-16.11,42.13,42.13,0,0,0,11.16-24.4,27.24,27.24,0,0,0-7.07-19.4,37.69,37.69,0,0,1-9-30.93s4.94-32.58-18.31-35.33c0,0-26.54,1.89-23.18,39.78,0,0,3.6,18.67-4.52,31.3,0,0-17.63,16.17-6.83,47.1,0,0,8.18,17.32-4.27,29.53C1599,755.91,1578.93,775.62,1605.54,831.63Z" class="cls-28"></path><path d="M1581.37,848s2.87-42-33.06-59.85c0,0-10.5-22.33-3.91-39.05a82.3,82.3,0,0,0,7.08-42.7s-20.2-26.85-4.88-56.62a50.66,50.66,0,0,0,20.5-40.7s1.28-40.63,25.26-39.71c0,0,26.29,7.2,15.55,52.83,0,0-7.26,22.21-1.46,39.11,0,0,14.52,22.94-2.32,58.81,0,0-11.53,19.65-1.4,36.61C1602.61,757,1618.84,784.83,1581.37,848Z" class="cls-29"></path><path d="M1587.48,607.17l-6.9,259.17" class="cls-24"></path><path d="M1632.75,647.5l-31.3,216" class="cls-24"></path><path d="M1620.85,912.77h-73.64l-7.87-70.83H1629Z" class="cls-3"></path><path d="M1549.71,852.8h67.11" class="cls-24"></path><path d="M1549.71,903h67.11" class="cls-24"></path><path d="M1561.91,831.63a47.47,47.47,0,0,0-29.22-35.33,30.47,30.47,0,0,1-18.79-20.56,20.64,20.64,0,0,1,0-9.88,50.49,50.49,0,0,0-.55-32.09s-22-16.35-13.3-40.21a34.67,34.67,0,0,0,11.53-32.46s-5.31-29.52,16-32.51c0,0,24.41,1.16,22,35.75a45.14,45.14,0,0,0,4.88,28.43s16.53,14.34,7.26,42.71c0,0-7,16,4.51,26.84C1566.43,762.63,1585,780.13,1561.91,831.63Z" class="cls-28"></path><path d="M1534.4,692.71l30.2,154.11" class="cls-24"></path></g></g></g></g></svg>